<svg width="16" height="16" viewBox="0 0 16 16" fill="none" xmlns="http://www.w3.org/2000/svg">
  <path d="M14.5 4H7.71L6.85 3.15C6.54 2.84 6.28 2.5 5.79 2.5H2.5C1.84 2.5 1.5 2.84 1.5 3.5V4H14.5Z" fill="#dcb67a" stroke="#dcb67a" stroke-width="0.5"/>
  <path d="M1.5 4V12.5C1.5 13.16 1.84 13.5 2.5 13.5H14.5C15.16 13.5 15.5 13.16 15.5 12.5V5C15.5 4.34 15.16 4 14.5 4H1.5Z" fill="#e8c547" stroke="#e8c547" stroke-width="0.5"/>
  <path d="M2 5H14.5C15.16 5 15.5 5.34 15.5 6V12C15.5 12.66 15.16 13 14.5 13H2C1.34 13 1 12.66 1 12V6C1 5.34 1.34 5 2 5Z" fill="#f4d03f" stroke="#f4d03f" stroke-width="0.3"/>
</svg>